<svg xmlns="http://www.w3.org/2000/svg" viewBox="0 0 1523.1691 433.2726"><defs><style>.cls-1{fill:#fff;}.cls-2{fill:#1c3e91;}</style></defs><g id="Layer_2" data-name="Layer 2"><g id="Layer_1-2" data-name="Layer 1"><path class="cls-1" d="M1169.213,147.3315h-52.2187a2.1725,2.1725,0,0,1-1.9983-1.3q-4.38-10.0608-10.2146-20.6946a130.8047,130.8047,0,0,0-28.4079-35.5065,145.1935,145.1935,0,0,0-47.37-28.0307,177.9769,177.9769,0,0,0-72.83-9.977c-19.3672,1.3135-41.0121,6.5256-58.8142,15.9995q-15.3009,8.1327-18.8363,10.6618-2.5781,1.8654-16.0274,12.8975c-7.7832,6.4-13.9454,15.9436-19.13,21.6588q-4.3387,4.758-9.53,14.91-7.5037,14.6513-9.2784,18.8223a133.4875,133.4875,0,0,0-6.7072,21.2815c-8.7333,36.5405-7.0846,79.2293,7.9229,114.2607a227.3624,227.3624,0,0,0,11.4443,22.1059q4.2129,7.3781,15.2729,20.7087a64.95,64.95,0,0,0,8.0907,8.3561c8.51,7.0985,16.1951,14.169,24.4953,18.5707,8.9432,4.751,19.0738,10.9272,28.6736,14.0992a177.8755,177.8755,0,0,0,110.2083.3074q54.9786-17.6276,84.7909-68.6934c3.8846-6.6654,6.33-13.9315,10.0049-22.3854a1.5741,1.5741,0,0,1,1.4393-.95h50.57a1.6947,1.6947,0,0,1,1.7047,1.7466,19.8663,19.8663,0,0,1-1.3554,7.2243c-4.1779,9.9072-6.54,18.5567-10.9552,27.0526-6.819,13.135-13.037,25.11-22.4133,35.9676-4.3457,5.03-8.9849,11.8494-14.5184,17.2292a237.4071,237.4071,0,0,1-27.5556,23.4894,221.5746,221.5746,0,0,1-49.466,25.9206,127.567,127.567,0,0,1-17.9837,5.5195c-8.3,1.8166-16.6005,4.2759-24.5235,5.4637-49.5077,7.4338-100.8042-.2516-143.8982-25.25a194.369,194.369,0,0,1-63.6211-59.5408,171.5892,171.5892,0,0,1-12.87-21.7566,230.5914,230.5914,0,0,1-21.044-68.3021c-10.1726-72.2706,10.3683-150.34,66.8069-199.2332a204.8367,204.8367,0,0,1,62.2377-37.03C917.3279,3.1117,947.5665-1.2061,975.3736.2891c12.59.6847,26.6613,1.2716,39.07,4.3876,10.0329,2.5292,17.0615,3.5773,24.5791,6.4139q11.5911,4.3806,23.6711,9.5857c9.6,4.1361,16.88,9.1526,27.3041,15.3708,8.6076,5.1283,15.8878,12.38,23.8946,19.4091a97.2555,97.2555,0,0,1,12.3245,12.7158c4.8767,6.2322,10.6338,12.0171,14.84,18.4589,7.2523,11.1368,15.65,24.8168,21.24,39.88q2.41,6.4557,8.0067,19.1715a1.1823,1.1823,0,0,1-1.09,1.6489Z"/><path class="cls-1" d="M288.2421,111.0846q-4.4193-16.4543-5.5729-19.212Q271.285,64.3918,250.8954,45.7447a138.7032,138.7032,0,0,0-59.4189-31.4972q-14.4162-3.6041-18.988-4.343-2.4312-.4005-22.735-1.8449-10.2471-.7365-22.7779-.758Q124.2726,7.2874,1.33,7.2491A1.3388,1.3388,0,0,0,0,8.5888v409.087a1.7518,1.7518,0,0,0,1.7591,1.7591q16.6688-.0786,44.0446-.1954a16.7453,16.7453,0,0,0,5.52-.8534.5473.5473,0,0,0,.3623-.5148V285.9329a1.7542,1.7542,0,0,1,1.6351-1.7448c3.27-.1955,6.9316-.31,10.9981-.3242q49.3624-.1215,67.17-.0381,8.4666.0357,18.6542-.6865,15.639-1.1084,18.6257-1.4683,4.97-.5649,21.41-4.2619a110.9917,110.9917,0,0,0,20.4133-6.7075q15.8894-6.9793,19.4647-9.2342,1.5089-.9439,15.1217-11.0552a77.9971,77.9971,0,0,0,11.8609-10.66q7.7373-8.6813,10.3259-12.2423a115.1521,115.1521,0,0,0,13.1767-23.1116,148.841,148.841,0,0,0,11.5319-49.0026C292.9378,140.5128,292.0606,125.21,288.2421,111.0846Zm-51.1288,59.009q-9.532,44.8359-52.5255,58.9136-19.0927,6.2641-43.0768,6.6074-31.8.4434-88.1464.1669a1.34,1.34,0,0,1-1.3253-1.2681q-.1932-3.9616-.21-8.1472-.15-20.523-.1573-80.1661-.0214-59.6526.1287-80.166.0429-4.19.21-8.1472A1.3582,1.3582,0,0,1,53.336,56.614q56.3631-.2931,88.1463.1574,23.9983.336,43.0912,6.593,42.9911,14.0658,52.54,58.8994a114.8361,114.8361,0,0,1,2.2788,23.9078A114.88,114.88,0,0,1,237.1133,170.0936Z"/><path class="cls-1" d="M1501.7926,187.4225c-.0145,2.8222-.7962,7.0127-.7676,10.507q.15,12.8073.0858,25.6431a54.6206,54.6206,0,0,0,.7389,8.5476,1.0677,1.0677,0,0,1-1.0487,1.2443H1318.8684a1.5212,1.5212,0,0,0-1.0774.4481l22.3775-48.0777q111.3105-.05,155.0453-.019a24.3539,24.3539,0,0,1,5.7159.6006A1.14,1.14,0,0,1,1501.7926,187.4225Z"/><path class="cls-1" d="M1522.406,418.4433a35.455,35.455,0,0,1-7.9946.8677q-24.2486,0-239.292.0143a49.8753,49.8753,0,0,1-9.1531-.7962,1.0615,1.0615,0,0,1-.8533-1.106c.1382-1.73.696-4.4287.696-6.96q-.1-166.1074.0858-390.9047,0-5.32.0144-10.3544a1.9266,1.9266,0,0,1,1.9259-1.9117H1513.1a2.8067,2.8067,0,0,1,2.8079,2.8079V53.5678a1.8107,1.8107,0,0,1-1.8163,1.8067H1318.8113a1.522,1.522,0,0,0-1.5208,1.5208V234.89l.062-.1287a.5817.5817,0,0,0-.01.1287V369.76a1.5351,1.5351,0,0,0,1.5542,1.535q115.365-.143,194.8183.0286c.92,0,3.5182.1717,7.78.52a1.2255,1.2255,0,0,1,1.12,1.2442q-.4434,16.3684-.267,32.4888a94.374,94.374,0,0,0,.81,11.7656A.9948.9948,0,0,1,1522.406,418.4433Z"/><path class="cls-1" d="M1317.791,233.8126l-.4385.9487A1.5089,1.5089,0,0,1,1317.791,233.8126Z"/><path class="cls-2" d="M705.5048,189.93V433.2726H653.8327V189.93A132.8144,132.8144,0,0,0,521.0183,57.1154h0A132.8144,132.8144,0,0,0,388.2037,189.93V433.2726H336.532V189.93c0-101.8889,82.5973-184.4862,184.4862-184.4862h0C622.9075,5.4435,705.5048,88.0408,705.5048,189.93Z"/></g></g></svg>